<svg width="211" height="24" viewBox="0 0 211 24" fill="none" xmlns="http://www.w3.org/2000/svg">
<path d="M37.4261 5.2272C35.6685 5.22513 33.9611 5.81301 32.5778 6.89651V1.38135H29.5426V13.096C29.5405 14.655 30.0013 16.1796 30.8666 17.4769C31.732 18.7742 32.9631 19.7858 34.4041 20.3837C35.845 20.9817 37.4312 21.1391 38.9617 20.8361C40.4923 20.533 41.8984 19.7831 43.0023 18.6813C44.1062 17.5795 44.8581 16.1753 45.163 14.6463C45.4678 13.1174 45.3119 11.5324 44.7149 10.092C44.118 8.65164 43.1067 7.42057 41.8093 6.5546C40.5118 5.68862 38.9864 5.22667 37.4261 5.2272V5.2272ZM37.4261 17.951C36.4666 17.9537 35.528 17.6718 34.7289 17.1411C33.9298 16.6105 33.3063 15.8548 32.9373 14.9699C32.5683 14.085 32.4704 13.1105 32.6559 12.17C32.8415 11.2294 33.3022 10.365 33.9797 9.68617C34.6572 9.00735 35.521 8.54465 36.4619 8.35664C37.4027 8.16864 38.3782 8.26378 39.2649 8.63003C40.1516 8.99628 40.9096 9.61717 41.4429 10.4141C41.9763 11.211 42.261 12.1481 42.261 13.1068C42.2567 14.3869 41.7461 15.6135 40.8403 16.5189C39.9346 17.4244 38.7073 17.9353 37.4261 17.9403V17.951Z" fill="#2B2922"/>
<path d="M62.8574 13.9786C62.8957 13.6858 62.9137 13.3908 62.9112 13.0956C62.9082 11.1184 62.1601 9.21485 60.8159 7.76387C59.4716 6.31289 57.6298 5.42092 55.6571 5.26555C53.6844 5.11018 51.7254 5.70279 50.1702 6.92541C48.6151 8.14803 47.5777 9.91098 47.2648 11.8633C46.9518 13.8156 47.3861 15.8141 48.4813 17.4609C49.5765 19.1076 51.2522 20.2819 53.1748 20.75C55.0974 21.218 57.1259 20.9455 58.8565 19.9866C60.5871 19.0277 61.8928 17.4528 62.5136 15.5754H59.1883C58.6865 16.4259 57.936 17.1024 57.0377 17.5137C56.1395 17.9251 55.1366 18.0515 54.1642 17.8761C53.1919 17.7007 52.2966 17.2318 51.599 16.5325C50.9015 15.8333 50.4351 14.9373 50.2627 13.9652L62.8574 13.9786ZM55.0304 8.25139C55.9708 8.25314 56.8905 8.52739 57.6781 9.0409C58.4657 9.5544 59.0873 10.2851 59.4677 11.1445H50.6038C50.9836 10.287 51.6037 9.55759 52.3891 9.04425C53.1745 8.53091 54.0918 8.25555 55.0304 8.25139V8.25139Z" fill="#2B2922"/>
<path d="M80.459 13.9789C80.4959 13.6861 80.5139 13.3911 80.5127 13.096C80.5121 11.1166 79.7655 9.21015 78.4215 7.75606C77.0775 6.30197 75.2347 5.40694 73.26 5.24919C71.2854 5.09143 69.3236 5.68251 67.7655 6.90474C66.2073 8.12698 65.167 9.89071 64.8516 11.8448C64.5362 13.7989 64.969 15.7999 66.0636 17.4496C67.1583 19.0992 68.8346 20.2765 70.7588 20.7469C72.683 21.2173 74.714 20.9465 76.4473 19.9882C78.1807 19.0299 79.4892 17.4546 80.1125 15.5758H76.7872C76.2854 16.4263 75.5348 17.1027 74.6366 17.5141C73.7383 17.9254 72.7355 18.0519 71.7631 17.8764C70.7907 17.701 69.8955 17.2321 69.1979 16.5329C68.5003 15.8336 68.0339 14.9376 67.8615 13.9655L80.459 13.9789ZM72.6265 8.25173C73.5656 8.25504 74.4836 8.53002 75.2696 9.04343C76.0556 9.55684 76.676 10.2867 77.0558 11.1448H68.1919C68.572 10.2859 69.1933 9.55544 69.9803 9.04197C70.7674 8.5285 71.6866 8.25401 72.6265 8.25173V8.25173Z" fill="#2B2922"/>
<path d="M21.874 6.05357C20.2006 4.32253 17.7751 3.05847 15.0461 2.49488C11.5972 1.78099 8.13763 2.30433 5.79004 3.90118C5.72891 3.93933 5.66975 3.98054 5.61276 4.02463H5.59933C5.36873 4.18601 5.15137 4.36549 4.94931 4.56139C4.81501 4.68484 4.68071 4.8083 4.5867 4.92101L4.55447 4.9559C4.36374 5.15627 4.18948 5.37167 4.03338 5.60001L3.92594 5.75567C2.33312 8.09861 1.80666 11.5499 2.51846 15.0013C3.08252 17.728 4.34764 20.1515 6.08013 21.8235C7.55745 23.2512 9.23353 24 10.8935 24C11.2679 24 11.6414 23.9622 12.0082 23.8873C14.713 23.3291 16.7114 20.8063 17.3185 17.2503C20.8802 16.6411 23.405 14.6443 23.9583 11.9471C24.3559 9.96384 23.6226 7.85975 21.874 6.05357ZM12.3225 15.6776C11.984 15.6078 11.6483 15.5246 11.3152 15.4307L15.4436 11.303C15.5376 11.6331 15.6209 11.9713 15.6907 12.3095C15.942 13.497 16.0251 14.7139 15.9379 15.9245C14.7271 16.0114 13.5101 15.9283 12.3225 15.6776ZM5.47578 11.5741C4.66997 10.404 4.36913 9.1587 4.60819 7.99126C4.70729 7.50668 4.89682 7.04508 5.16688 6.63058L5.26895 6.48029C5.4005 6.29975 5.54219 6.12682 5.69334 5.96232C5.73901 5.91401 5.78467 5.8657 5.83302 5.82008C5.88137 5.77446 5.92703 5.72615 5.97806 5.68052C6.14719 5.52375 6.32666 5.37849 6.51527 5.24575L6.58779 5.19476L6.62271 5.17329C7.04115 4.89876 7.50776 4.70571 7.99796 4.60433C8.25686 4.55072 8.52057 4.52374 8.78497 4.52382C9.79322 4.54918 10.7701 4.87952 11.5865 5.47119L5.47578 11.5741ZM11.6805 22.4327C10.171 22.744 8.55128 22.1643 7.11425 20.766C5.60739 19.3034 4.48732 17.159 3.99577 14.7249C3.78206 13.688 3.6919 12.6295 3.72717 11.5714C4.03165 12.1613 4.40688 12.7119 4.84456 13.2112C4.85013 13.2181 4.85644 13.2244 4.86336 13.23L4.87948 13.2515C5.12717 13.5338 5.38989 13.8025 5.66648 14.0566C6.05716 14.4957 6.5251 14.8596 7.0471 15.1301C7.85954 15.6705 8.72872 16.1205 9.63912 16.472C10.4109 16.7697 11.206 17.0031 12.0163 17.1698C13.0007 17.3735 14.0032 17.4769 15.0085 17.4784C15.2422 17.4784 15.4759 17.4784 15.7069 17.4543C15.1455 20.1515 13.6494 22.0247 11.6805 22.4327V22.4327ZM22.4515 11.668C22.0459 13.6326 20.171 15.1274 17.4716 15.6937C17.5315 14.4526 17.4331 13.209 17.1788 11.9928C17.0143 11.1963 16.7852 10.4146 16.4939 9.6552C16.4843 9.6249 16.4727 9.5953 16.459 9.56664C16.1145 8.67496 15.675 7.82288 15.1482 7.0251C14.8785 6.5052 14.5141 6.04011 14.0738 5.65369C13.8202 5.37748 13.5511 5.11584 13.2679 4.87002L13.2518 4.85124L13.2062 4.81366C12.7091 4.37897 12.1607 4.00673 11.5731 3.70526C12.633 3.66739 13.6936 3.7575 14.7318 3.97364C17.1681 4.47551 19.3142 5.58391 20.7781 7.10024C22.1721 8.54412 22.7631 10.1624 22.4515 11.668ZM3.78895 1.05637C3.74893 0.962207 3.72836 0.860934 3.72848 0.75863C3.7286 0.656326 3.7494 0.555101 3.78964 0.461028C3.82988 0.366956 3.88872 0.281974 3.96264 0.211185C4.03656 0.140396 4.12403 0.0852574 4.21981 0.0490786C4.31558 0.0128997 4.41768 -0.00357373 4.51998 0.000646573C4.62229 0.00486688 4.72268 0.0296949 4.81514 0.0736391C4.90761 0.117583 4.99023 0.179738 5.05806 0.256375C5.12589 0.333011 5.17752 0.42255 5.20986 0.519616L5.82227 2.14599C5.85766 2.23902 5.87433 2.33811 5.87134 2.4376C5.86834 2.53708 5.84574 2.63499 5.80482 2.72573C5.7639 2.81647 5.70548 2.89826 5.63288 2.96641C5.56029 3.03455 5.47495 3.08773 5.38177 3.12288C5.29622 3.15655 5.2051 3.17385 5.11316 3.17387C4.95899 3.17385 4.80849 3.12681 4.68178 3.03905C4.55507 2.95129 4.45818 2.82699 4.40405 2.68274L3.78895 1.05637ZM2.41639 5.86839C2.32445 5.86837 2.23333 5.85107 2.14779 5.8174L0.520051 5.20549C0.422903 5.17318 0.33329 5.12159 0.256589 5.05382C0.179888 4.98605 0.117681 4.9035 0.0736998 4.81111C0.0297187 4.71873 0.00487096 4.61842 0.000647115 4.5162C-0.00357673 4.41398 0.0129105 4.31197 0.0491197 4.21627C0.0853289 4.12058 0.140514 4.03318 0.211362 3.95932C0.282211 3.88547 0.367262 3.82667 0.461414 3.78647C0.555565 3.74626 0.656876 3.72548 0.759265 3.72536C0.861655 3.72524 0.963013 3.74579 1.05726 3.78578L2.68499 4.39768C2.8519 4.46018 2.99153 4.5793 3.07945 4.73423C3.16738 4.88915 3.19802 5.07002 3.16602 5.24523C3.13403 5.42043 3.04142 5.57883 2.9044 5.69274C2.76737 5.80665 2.59464 5.86882 2.41639 5.86839V5.86839Z" fill="#2B2922"/>
<path d="M84.5417 20.7418V1.56885H86.3575V9.05659H86.4085C87.031 8.17203 87.8583 7.4509 88.8199 6.95464C89.7814 6.45838 90.8488 6.20168 91.931 6.20642C96.0809 6.20642 99.5567 9.36791 99.5567 13.6163C99.5567 17.8648 96.2367 21.0799 91.931 21.0799C90.8492 21.097 89.7798 20.8483 88.8168 20.3555C87.8539 19.8627 87.0268 19.141 86.4085 18.2539H86.3575V20.7418H84.5417ZM91.9068 7.83816C88.7937 7.83816 86.2527 10.4548 86.2527 13.6673C86.2432 14.4202 86.3827 15.1676 86.6633 15.8664C86.9439 16.5653 87.3601 17.2018 87.8878 17.7393C88.4155 18.2768 89.0445 18.7048 89.7383 18.9985C90.4322 19.2922 91.1774 19.446 91.931 19.4509C95.3047 19.4509 97.7409 16.9389 97.7409 13.6995C97.7382 10.3529 95.2778 7.83816 91.9068 7.83816Z" fill="#2B2922"/>
<path d="M103.314 14.3169C103.47 17.1403 106.065 19.451 108.813 19.451C111.015 19.451 113.11 18.1816 113.895 16.1097H115.812C115.242 17.7626 114.103 19.1596 112.599 20.0515C111.094 20.9435 109.321 21.2724 107.595 20.9798C105.87 20.6871 104.305 19.7919 103.179 18.4536C102.053 17.1154 101.44 15.4211 101.448 13.6728C101.448 9.55322 104.845 6.21191 108.813 6.21191C113.065 6.21191 116.253 9.86454 116.253 13.7775C116.253 13.96 116.229 14.1398 116.229 14.3142L103.314 14.3169ZM114.392 12.6852C113.873 9.83502 111.617 7.83829 108.818 7.83829C106.172 7.83829 103.811 9.75719 103.32 12.6852H114.392Z" fill="#2B2922"/>
<path d="M129.659 20.7419V12.8408C129.659 9.65252 127.741 7.83828 125.251 7.83828C122.501 7.83828 120.817 9.937 120.817 12.7093V20.7419H119.001V6.56885H120.817V8.38309H120.868C121.775 7.00899 123.384 6.20654 125.224 6.20654C129.141 6.20654 131.475 8.89032 131.475 12.8408V20.7419H129.659Z" fill="#2B2922"/>
<path d="M135.985 14.3169C136.148 17.1403 138.732 19.451 141.483 19.451C143.685 19.451 145.781 18.1816 146.565 16.1097H148.483C147.913 17.7626 146.774 19.1596 145.269 20.0515C143.764 20.9435 141.991 21.2724 140.266 20.9798C138.541 20.6871 136.976 19.7919 135.85 18.4536C134.724 17.1154 134.11 15.4211 134.118 13.6728C134.118 9.55322 137.516 6.21191 141.483 6.21191C145.735 6.21191 148.926 9.86454 148.926 13.7775C148.926 13.96 148.899 14.1398 148.899 14.3142L135.985 14.3169ZM147.056 12.6852C146.538 9.83502 144.282 7.83829 141.483 7.83829C138.837 7.83829 136.476 9.75719 135.985 12.6852H147.056Z" fill="#2B2922"/>
<path d="M159.114 20.742V8.20073H154.497V20.742H152.684V8.20073H150.478V6.56899H152.684V6.36234C152.684 2.33667 155.147 1.23096 158.128 1.23096V2.91637C155.845 2.91637 154.497 3.7215 154.497 6.25768V6.56899H160.943V20.742H159.114ZM159.114 4.83259V1.56911H160.93V4.83259H159.114Z" fill="#2B2922"/>
<path d="M178.354 16.5713C176.901 19.4456 174.594 21.08 171.301 21.08C167.073 21.08 163.675 17.9427 163.675 13.5145C163.675 9.62568 167.1 6.20654 171.301 6.20654C174.411 6.20654 177.186 7.94295 178.354 10.8441H176.356C175.881 9.93015 175.162 9.16547 174.279 8.63489C173.395 8.10431 172.382 7.82858 171.352 7.83828C170.578 7.82166 169.809 7.9595 169.09 8.24369C168.371 8.52789 167.716 8.95273 167.163 9.4933C166.61 10.0339 166.171 10.6793 165.871 11.3917C165.571 12.1041 165.417 12.8691 165.417 13.642C165.417 14.4148 165.571 15.1798 165.871 15.8922C166.171 16.6046 166.61 17.25 167.163 17.7906C167.716 18.3312 168.371 18.756 169.09 19.0402C169.809 19.3244 170.578 19.4622 171.352 19.4456C173.5 19.4456 175.346 18.4607 176.356 16.5713H178.354Z" fill="#2B2922"/>
<path d="M181.075 4.83232V1.56885H182.885V4.83232H181.075ZM181.075 20.7418V6.56873H182.885V20.7418H181.075Z" fill="#2B2922"/>
<path d="M185.663 13.7453C185.663 9.57468 189.034 6.20654 193.055 6.20654C195.029 6.20654 196.922 6.99005 198.318 8.38472C199.713 9.77938 200.498 11.6709 200.498 13.6433C200.498 15.6156 199.713 17.5072 198.318 18.9019C196.922 20.2965 195.029 21.08 193.055 21.08C189.034 21.08 185.663 17.6851 185.663 13.7453ZM198.682 13.5655C198.682 10.4818 196.192 7.83828 193.055 7.83828C189.968 7.83828 187.478 10.5221 187.478 13.7211C187.478 16.8289 189.995 19.4456 193.079 19.4456C196.27 19.451 198.682 16.8048 198.682 13.5655V13.5655Z" fill="#2B2922"/>
<path d="M208.69 10.0579C208.585 8.68378 207.731 7.82766 206.563 7.82766C206.281 7.82226 206.001 7.87339 205.739 7.97803C205.477 8.08267 205.239 8.23869 205.039 8.43686C204.839 8.63503 204.68 8.87133 204.573 9.13178C204.465 9.39223 204.411 9.67155 204.414 9.95321C204.414 10.9891 205.139 11.7138 206.877 12.2854C210.326 13.426 211 14.7974 211 16.8183C211 19.4108 209.262 21.0694 206.539 21.0694C204.102 21.0694 202.184 19.333 202.184 16.6385V16.5338H203.998C204.024 18.4125 205.01 19.435 206.539 19.435C208.174 19.435 209.184 18.5279 209.184 16.8961C209.184 15.5247 208.303 14.7733 206.67 14.1775C204.18 13.2704 202.598 12.5672 202.598 10.133C202.598 7.85449 204.309 6.19592 206.643 6.19592C207.153 6.18681 207.66 6.28051 208.133 6.4714C208.606 6.66229 209.035 6.94647 209.396 7.30695C209.756 7.66743 210.04 8.09682 210.231 8.56947C210.422 9.04213 210.515 9.54834 210.506 10.0579H208.69Z" fill="#2B2922"/>
</svg>
